HIERARCHY
ROOT Hips
{
	OFFSET 0.000000 0.000000 0.000000
	CHANNELS 6 Xposition Yposition Zposition Xrotation Yrotation Zrotation
	JOINT LeftUpLeg_virtual
	{
		OFFSET 0.000000 0.000000 0.000000
		CHANNELS 3 Xrotation Yrotation Zrotation
		JOINT LeftUpLeg
		{
			OFFSET 13.026900 -6.336304 -1.092800
			CHANNELS 3 Xrotation Yrotation Zrotation
			JOINT LeftLeg
			{
				OFFSET 0.524474 -46.096886 9.782700
				CHANNELS 3 Xrotation Yrotation Zrotation
				JOINT LeftFoot
				{
					OFFSET -0.524474 -53.427422 -12.948200
					CHANNELS 3 Xrotation Yrotation Zrotation
					JOINT LeftToeBase
					{
						OFFSET 0.192200 -14.009700 16.364100
						CHANNELS 3 Xrotation Yrotation Zrotation
						JOINT LeftToe_End
						{
							OFFSET -1.784700 -0.561700 9.474800
							CHANNELS 3 Xrotation Yrotation Zrotation
							End Site
							{
								OFFSET 0 0 0
							}
						}
					}
				}
			}
		}
	}
	JOINT RightUpLeg_virtual
	{
		OFFSET 0.000000 0.000000 0.000000
		CHANNELS 3 Xrotation Yrotation Zrotation
		JOINT RightUpLeg
		{
			OFFSET -12.883000 -6.336304 -1.092800
			CHANNELS 3 Xrotation Yrotation Zrotation
			JOINT RightLeg
			{
				OFFSET -0.524587 -46.096825 9.782800
				CHANNELS 3 Xrotation Yrotation Zrotation
				JOINT RightFoot
				{
					OFFSET 0.524587 -53.427383 -12.948300
					CHANNELS 3 Xrotation Yrotation Zrotation
					JOINT RightToeBase
					{
						OFFSET -0.192200 -14.009700 16.364100
						CHANNELS 3 Xrotation Yrotation Zrotation
						JOINT RightToe_End
						{
							OFFSET 1.784700 -0.561700 9.474800
							CHANNELS 3 Xrotation Yrotation Zrotation
							End Site
							{
								OFFSET 0 0 0
							}
						}
					}
				}
			}
		}
	}
	JOINT Spine_virtual
	{
		OFFSET 0.000000 0.000000 0.000000
		CHANNELS 3 Xrotation Yrotation Zrotation
		JOINT Spine
		{
			OFFSET 0.072000 7.257294 -0.789700
			CHANNELS 3 Xrotation Yrotation Zrotation
			JOINT Spine1
			{
				OFFSET 0.000000 12.508769 -0.658067
				CHANNELS 3 Xrotation Yrotation Zrotation
				JOINT Spine1_split
				{
					OFFSET 0.000000 12.508769 -0.658067
					CHANNELS 3 Xrotation Yrotation Zrotation
					JOINT Spine2
					{
						OFFSET 0.000000 12.508769 -0.658067
						CHANNELS 3 Xrotation Yrotation Zrotation
						JOINT Neck_virtual
						{
							OFFSET 0.000000 0.000000 0.000000
							CHANNELS 3 Xrotation Yrotation Zrotation
							JOINT Neck
							{
								OFFSET 0.000000 14.033295 7.520400
								CHANNELS 3 Xrotation Yrotation Zrotation
								JOINT Head
								{
									OFFSET 0.000000 8.198502 5.703100
									CHANNELS 3 Xrotation Yrotation Zrotation
									JOINT HeadTop_End
									{
										OFFSET 0.000000 17.760803 13.332701
										CHANNELS 3 Xrotation Yrotation Zrotation
										End Site
										{
											OFFSET 0 0 0
										}
									}
								}
							}
						}
						JOINT LeftShoulder_virtual
						{
							OFFSET 0.000000 0.000000 0.000000
							CHANNELS 3 Xrotation Yrotation Zrotation
							JOINT LeftShoulder
							{
								OFFSET 6.292450 5.785301 -0.669000
								CHANNELS 3 Xrotation Yrotation Zrotation
								JOINT LeftShoulder_split
								{
									OFFSET 6.292450 5.785301 -0.669000
									CHANNELS 3 Xrotation Yrotation Zrotation
									JOINT LeftArm
									{
										OFFSET 13.907140 -6.093903 1.965100
										CHANNELS 3 Xrotation Yrotation Zrotation
										JOINT LeftForeArm
										{
											OFFSET 34.140198 0.000000 0.000000
											CHANNELS 3 Xrotation Yrotation Zrotation
											JOINT LeftHand
											{
												OFFSET 40.960209 0.000000 0.000000
												CHANNELS 3 Xrotation Yrotation Zrotation
												End Site
												{
													OFFSET 0 0 0
												}
											}
										}
									}
								}
							}
						}
						JOINT RightShoulder_virtual
						{
							OFFSET 0.000000 0.000000 0.000000
							CHANNELS 3 Xrotation Yrotation Zrotation
							JOINT RightShoulder
							{
								OFFSET -6.292450 5.785301 -0.669000
								CHANNELS 3 Xrotation Yrotation Zrotation
								JOINT RightShoulder_split
								{
									OFFSET -6.292450 5.785301 -0.669000
									CHANNELS 3 Xrotation Yrotation Zrotation
									JOINT RightArm
									{
										OFFSET -13.907140 -6.093903 1.965100
										CHANNELS 3 Xrotation Yrotation Zrotation
										JOINT RightForeArm
										{
											OFFSET -34.140198 0.000000 0.000000
											CHANNELS 3 Xrotation Yrotation Zrotation
											JOINT RightHand
											{
												OFFSET -40.960209 0.000000 0.000000
												CHANNELS 3 Xrotation Yrotation Zrotation
												End Site
												{
													OFFSET 0 0 0
												}
											}
										}
									}
								}
							}
						}
					}
				}
			}
		}
	}
}
MOTION
Frames: 9
Frame Time: 0.03333333
4.068234 100.914803 0.119663 0.000000 0.000000 0.000000 14.306842 -85.913138 16.619619 -23.918187 27.749489 33.244143 25.245634 -12.133501 0.264212 -6.350819 4.392231 -19.449864 -0.124880 -0.558892 -0.552608 0.000000 0.000000 0.000000 4.488861 -85.636229 7.808498 -35.624259 -4.156362 -28.290676 27.519486 5.419744 -3.650935 1.456444 6.070199 24.795899 1.347491 0.599563 1.318041 0.000000 0.000000 0.000000 8.383915 -81.884870 11.051200 6.408291 -3.498792 -3.213654 1.854029 -8.006649 -0.419660 0.552239 0.191260 0.259551 0.000000 0.000000 0.000000 1.883754 -8.392927 -0.865219 -8.405895 6.167344 7.138714 90.669136 78.095440 -94.681503 0.000000 0.000000 0.000000 3.231276 -8.987739 -0.241712 5.102300 -1.051109 10.884612 -4.123281 -4.351828 2.782953 -35.234928 11.253187 -2.740631 -3.921080 -11.055583 0.341784 0.000000 0.000000 0.000000 2.529611 -8.715559 -0.828090 -0.127348 1.026543 -21.606233 0.886755 1.796703 7.369403 -49.923642 42.101255 44.985982 179.239136 37.091977 -178.019769 0.000000 0.000000 0.000000 
3.994219 100.916039 0.127171 0.000000 0.000000 0.000000 13.404105 -85.807728 15.767536 -23.859943 27.734885 33.171025 25.172420 -12.197755 0.254285 -6.311080 4.403084 -19.431258 -0.129260 -0.557315 -0.552804 0.000000 0.000000 0.000000 3.799770 -85.537526 7.181480 -35.387821 -4.096743 -28.340403 27.597974 5.287613 -3.661945 1.266890 6.015433 24.903245 1.354848 0.598520 1.311159 0.000000 0.000000 0.000000 8.116029 -81.767842 10.830050 6.388277 -3.598335 -3.275438 1.849574 -8.098797 -0.403172 0.552395 0.191140 0.255209 0.000000 0.000000 0.000000 1.887548 -8.487074 -0.852771 -8.427288 6.241131 7.358848 93.456645 78.031899 -97.273560 0.000000 0.000000 0.000000 3.249482 -9.082093 -0.216115 5.010651 -0.828155 10.910582 -4.146770 -4.351188 2.763947 -35.187676 11.104459 -2.968124 -3.928493 -11.067990 0.337366 0.000000 0.000000 0.000000 2.547113 -8.811119 -0.819707 -0.034414 1.063829 -21.538291 0.867077 1.796423 7.428614 -49.412713 41.648871 44.747909 179.257837 36.734950 -178.009278 0.000000 0.000000 0.000000 
3.920120 100.917061 0.141968 0.000000 0.000000 0.000000 12.518970 -85.708506 14.940545 -23.807410 27.715957 33.096293 25.110040 -12.258154 0.248241 -6.263417 4.405500 -19.412301 -0.130462 -0.555512 -0.551996 0.000000 0.000000 0.000000 3.130889 -85.438761 6.579152 -35.145049 -4.033841 -28.386772 27.670239 5.159033 -3.677594 1.081861 5.959484 25.006432 1.354366 0.598680 1.306446 0.000000 0.000000 0.000000 7.808434 -81.657548 10.578713 6.377902 -3.696196 -3.351249 1.843454 -8.190625 -0.380463 0.554290 0.189629 0.252448 0.000000 0.000000 0.000000 1.891163 -8.580061 -0.834817 -8.447657 6.323657 7.578983 96.225515 77.928470 -99.826486 0.000000 0.000000 0.000000 3.270854 -9.176661 -0.183748 4.917648 -0.612724 10.939771 -4.162398 -4.349044 2.749592 -35.150763 10.969853 -3.194734 -3.943107 -11.068553 0.324269 0.000000 0.000000 0.000000 2.564321 -8.906223 -0.805759 0.065030 1.102243 -21.461035 0.847332 1.806014 7.483803 -48.868989 41.181396 44.482806 179.283805 36.387546 -177.996683 0.000000 0.000000 0.000000 
3.846296 100.915771 0.159416 0.000000 0.000000 0.000000 11.654847 -85.613491 14.139167 -23.762004 27.694337 33.023466 25.057150 -12.313674 0.244874 -6.217057 4.404165 -19.390086 -0.123980 -0.553218 -0.551955 0.000000 0.000000 0.000000 2.481993 -85.336165 5.998136 -34.897281 -3.967655 -28.431439 27.737974 5.038751 -3.697678 0.907923 5.909878 25.113846 1.337348 0.599635 1.303908 0.000000 0.000000 0.000000 7.466037 -81.554726 10.299824 6.379813 -3.792058 -3.438712 1.835560 -8.280214 -0.351336 0.555812 0.188945 0.252652 0.000000 0.000000 0.000000 1.894346 -8.669497 -0.811428 -8.463890 6.413741 7.790673 98.912901 77.789817 -102.288544 0.000000 0.000000 0.000000 3.294755 -9.269556 -0.144990 4.826894 -0.415837 10.973146 -4.164307 -4.344336 2.737974 -35.125703 10.860121 -3.409083 -3.964220 -11.064859 0.302710 0.000000 0.000000 0.000000 2.580235 -8.998828 -0.785781 0.170815 1.146073 -21.372963 0.824850 1.820816 7.530198 -48.301185 40.716315 44.188018 179.321084 36.061913 -177.984703 0.000000 0.000000 0.000000 
3.772267 100.911072 0.178928 0.000000 0.000000 0.000000 10.820745 -85.520621 13.369214 -23.723212 27.669861 32.954881 25.011323 -12.366882 0.242894 -6.177328 4.401804 -19.368709 -0.112483 -0.550180 -0.553028 0.000000 0.000000 0.000000 1.852480 -85.230010 5.436296 -34.650776 -3.901130 -28.475496 27.806250 4.927444 -3.720348 0.745877 5.870890 25.227548 1.313261 0.601409 1.302840 0.000000 0.000000 0.000000 7.098335 -81.461071 10.000697 6.395102 -3.886778 -3.535163 1.825491 -8.365710 -0.315861 0.556648 0.186030 0.258192 0.000000 0.000000 0.000000 1.896616 -8.753910 -0.782262 -8.474688 6.509728 7.986410 101.464215 77.622013 -104.615788 0.000000 0.000000 0.000000 3.318685 -9.358395 -0.100838 4.742696 -0.248065 11.010408 -4.151800 -4.340168 2.729741 -35.112056 10.783574 -3.601159 -3.987382 -11.065299 0.276831 0.000000 0.000000 0.000000 2.594532 -9.086704 -0.759214 0.281359 1.196717 -21.274398 0.800710 1.837970 7.565213 -47.717727 40.267561 43.864540 179.371696 35.766473 -177.975059 0.000000 0.000000 0.000000 
3.699412 100.901810 0.196098 0.000000 0.000000 0.000000 10.039759 -85.430312 12.650240 -23.689707 27.642307 32.892203 24.972896 -12.420523 0.240872 -6.143476 4.399379 -19.351756 -0.102273 -0.546569 -0.554646 0.000000 0.000000 0.000000 1.253377 -85.119942 4.902352 -34.411559 -3.836225 -28.519016 27.877161 4.824291 -3.743580 0.589332 5.841928 25.341411 1.296451 0.604437 1.301927 0.000000 0.000000 0.000000 6.729656 -81.374286 9.700133 6.421616 -3.980251 -3.637957 1.813597 -8.445661 -0.274444 0.556019 0.180696 0.261721 0.000000 0.000000 0.000000 1.897661 -8.831979 -0.747476 -8.481410 6.608481 8.162467 103.844659 77.433383 -106.783662 0.000000 0.000000 0.000000 3.340644 -9.441366 -0.052136 4.669332 -0.118538 11.053614 -4.125376 -4.336062 2.724295 -35.106039 10.739729 -3.761818 -4.005885 -11.069378 0.251084 0.000000 0.000000 0.000000 2.605955 -9.167845 -0.726022 0.394652 1.254717 -21.166683 0.779656 1.857513 7.586523 -47.124661 39.840941 43.518205 179.434301 35.505437 -177.966398 0.000000 0.000000 0.000000 
3.627681 100.889519 0.207989 0.000000 0.000000 0.000000 9.315542 -85.342128 11.984060 -23.660617 27.611972 32.835585 24.940019 -12.476870 0.237552 -6.110546 4.397072 -19.341375 -0.097539 -0.542530 -0.555737 0.000000 0.000000 0.000000 0.672983 -85.011034 4.384457 -34.184209 -3.776965 -28.562548 27.958107 4.723378 -3.765138 0.433974 5.817596 25.446531 1.291362 0.608884 1.300316 0.000000 0.000000 0.000000 6.376973 -81.293287 9.411384 6.457646 -4.072515 -3.742089 1.799129 -8.519262 -0.229302 0.551806 0.174397 0.266085 0.000000 0.000000 0.000000 1.897184 -8.903682 -0.708879 -8.487992 6.707266 8.317488 106.035313 77.229748 -108.780168 0.000000 0.000000 0.000000 3.358572 -9.517717 -0.001859 4.611964 -0.033459 11.101398 -4.086762 -4.331110 2.716616 -35.103559 10.722733 -3.886578 -4.012788 -11.062864 0.230925 0.000000 0.000000 0.000000 2.614177 -9.241709 -0.687873 0.507613 1.318271 -21.051044 0.765426 1.877144 7.590727 -46.520538 39.437540 43.160061 179.505568 35.278152 -177.956508 0.000000 0.000000 0.000000 
3.558470 100.875473 0.215233 0.000000 0.000000 0.000000 8.653121 -85.258062 11.375465 -23.632427 27.580326 32.782934 24.909434 -12.536598 0.232307 -6.075522 4.394522 -19.335847 -0.098321 -0.538471 -0.555951 0.000000 0.000000 0.000000 0.117841 -84.908226 3.890035 -33.973098 -3.722539 -28.606294 28.048742 4.622336 -3.783954 0.281768 5.794217 25.540782 1.291848 0.614521 1.297291 0.000000 0.000000 0.000000 6.055242 -81.217226 9.147411 6.498477 -4.163639 -3.841681 1.781839 -8.586698 -0.184265 0.546578 0.170025 0.269217 0.000000 0.000000 0.000000 1.894067 -8.969790 -0.669712 -8.496766 6.803963 8.452898 108.028820 77.016544 -110.599798 0.000000 0.000000 0.000000 3.371091 -9.587434 0.046133 4.574569 0.003739 11.153293 -4.036885 -4.333694 2.709703 -35.099348 10.730521 -3.971438 -4.006152 -11.031164 0.219556 0.000000 0.000000 0.000000 2.618640 -9.308499 -0.648580 0.617530 1.386893 -20.931784 0.764083 1.901714 7.582582 -45.909905 39.051641 42.799919 179.579976 35.081863 -177.942042 0.000000 0.000000 0.000000 
3.492724 100.861908 0.217365 0.000000 0.000000 0.000000 8.053429 -85.177978 10.825733 -23.600972 27.549995 32.731305 24.874810 -12.600306 0.225016 -6.039856 4.392492 -19.331969 -0.100921 -0.534747 -0.556503 0.000000 0.000000 0.000000 -0.412615 -84.815103 3.419279 -33.780224 -3.668487 -28.650738 28.146178 4.522489 -3.800737 0.138183 5.770541 25.629378 1.284839 0.620686 1.293078 0.000000 0.000000 0.000000 5.776112 -81.144806 8.919193 6.541320 -4.252493 -3.928684 1.760253 -8.648402 -0.144568 0.544370 0.170706 0.272120 0.000000 0.000000 0.000000 1.887088 -9.031207 -0.635316 -8.511865 6.896784 8.569924 109.833431 76.796489 -112.250928 0.000000 0.000000 0.000000 3.376843 -9.651255 0.086982 4.560053 -0.004918 11.203998 -3.978921 -4.348555 2.705039 -35.093232 10.759587 -4.015156 -3.988391 -10.971504 0.216477 0.000000 0.000000 0.000000 2.618462 -9.369129 -0.613526 0.721315 1.459905 -20.813601 0.776806 1.929962 7.557317 -45.295246 38.675048 42.445289 179.652212 34.914773 -177.921906 0.000000 0.000000 0.000000 
